<mxfile host="app.diagrams.net" modified="2023-05-12T08:34:59.803Z" agent="Mozilla/5.0 (Macintosh; Intel Mac OS X 10_15_7) AppleWebKit/537.36 (KHTML, like Gecko) Chrome/113.0.0.0 Safari/537.36" version="21.2.9" etag="5O1pX6mpN3-k_bmGoYDZ" type="github">
  <diagram name="페이지-1" id="bLkYUwkAYWaZ4eG7yHuU">
    <mxGraphModel>
      <root>
        <mxCell id="0" />
        <mxCell id="1" parent="0" />
      </root>
    </mxGraphModel>
  </diagram>
</mxfile>
